<?xml version="1.0" encoding="iso-8859-1"?>
<!-- Generator: Adobe Illustrator 16.0.0, SVG Export Plug-In . SVG Version: 6.00 Build 0)  -->
<!DOCTYPE svg PUBLIC "-//W3C//DTD SVG 1.1//EN" "http://www.w3.org/Graphics/SVG/1.1/DTD/svg11.dtd">
<svg xmlns="http://www.w3.org/2000/svg" xmlns:xlink="http://www.w3.org/1999/xlink" version="1.1" id="Capa_1" x="0px" y="0px" width="256px" height="256px" viewBox="0 0 612 612" style="enable-background:new 0 0 612 612;" xml:space="preserve">
<g>
	<path d="M430.312,0h-9.562H219.938c-21.038,0-38.25,17.212-38.25,38.25v57.375h-76.5c-21.038,0-38.25,17.212-38.25,38.25V573.75   c0,21.037,17.212,38.25,38.25,38.25h286.875c21.037,0,38.25-17.213,38.25-38.25v-57.375h76.5c21.037,0,38.25-17.213,38.25-38.25   V143.438v-9.562L430.312,0z M430.312,28.688L520.2,133.875h-70.763c-9.562,0-19.125-9.562-19.125-19.125V28.688z M411.188,573.75   c0,9.562-7.65,19.125-19.125,19.125H105.188c-9.562,0-19.125-7.65-19.125-19.125V133.875c0-9.562,7.65-19.125,19.125-19.125h191.25   v95.625c0,21.038,17.213,38.25,38.25,38.25h76.5V573.75z M315.562,210.375v-86.062L405.45,229.5h-70.763   C325.125,229.5,315.562,219.938,315.562,210.375z M525.938,478.125c0,9.562-7.65,19.125-19.125,19.125h-76.5V239.062V229.5   L315.562,95.625H306H200.812V38.25c0-9.562,7.65-19.125,19.125-19.125h191.25v95.625c0,21.038,17.213,38.25,38.25,38.25h76.5   V478.125z" fill="#FFFFFF"/>
</g>
<g>
</g>
<g>
</g>
<g>
</g>
<g>
</g>
<g>
</g>
<g>
</g>
<g>
</g>
<g>
</g>
<g>
</g>
<g>
</g>
<g>
</g>
<g>
</g>
<g>
</g>
<g>
</g>
<g>
</g>
</svg>
