<?xml version="1.0" encoding="UTF-8" standalone="no"?>
<svg width="1024px" height="1024px" viewBox="0 0 1024 1024" version="1.1" xmlns="http://www.w3.org/2000/svg" xmlns:xlink="http://www.w3.org/1999/xlink">
    <!-- Generator: Sketch 3.7.1 (28215) - http://www.bohemiancoding.com/sketch -->
    <title>Icon</title>
    <desc>Created with Sketch.</desc>
    <defs>
        <linearGradient x1="50%" y1="100%" x2="50%" y2="-1.11022302e-14%" id="linearGradient-1">
            <stop stop-color="#9C0A86" offset="0%"></stop>
            <stop stop-color="#5799FA" offset="100%"></stop>
        </linearGradient>
        <linearGradient x1="50%" y1="0%" x2="50%" y2="100%" id="linearGradient-2">
            <stop stop-color="#000000" stop-opacity="0.1" offset="0%"></stop>
            <stop stop-color="#000000" stop-opacity="0.2" offset="100%"></stop>
        </linearGradient>
        <circle id="path-3" cx="512" cy="512" r="452"></circle>
        <filter x="-50%" y="-50%" width="200%" height="200%" filterUnits="objectBoundingBox" id="filter-5">
            <feMorphology radius="2" operator="dilate" in="SourceAlpha" result="shadowSpreadOuter1"></feMorphology>
            <feOffset dx="0" dy="12" in="shadowSpreadOuter1" result="shadowOffsetOuter1"></feOffset>
            <feGaussianBlur stdDeviation="11" in="shadowOffsetOuter1" result="shadowBlurOuter1"></feGaussianBlur>
            <feComposite in="shadowBlurOuter1" in2="SourceAlpha" operator="out" result="shadowBlurOuter1"></feComposite>
            <feColorMatrix values="0 0 0 0 0   0 0 0 0 0   0 0 0 0 0  0 0 0 0.2 0" type="matrix" in="shadowBlurOuter1"></feColorMatrix>
        </filter>
        <mask id="mask-6" maskContentUnits="userSpaceOnUse" maskUnits="objectBoundingBox" x="-2" y="-2" width="908" height="908">
            <rect x="58" y="58" width="908" height="908" fill="white"></rect>
            <use xlink:href="#path-3" fill="black"></use>
        </mask>
        <text id="text-7" font-family="Baskerville" font-size="1400" font-weight="normal" fill="#FFFFFF">
            <tspan x="226" y="1160">*</tspan>
        </text>
        <filter x="-50%" y="-50%" width="200%" height="200%" filterUnits="objectBoundingBox" id="filter-8">
            <feOffset dx="0" dy="0" in="SourceAlpha" result="shadowOffsetOuter1"></feOffset>
            <feGaussianBlur stdDeviation="74.5" in="shadowOffsetOuter1" result="shadowBlurOuter1"></feGaussianBlur>
            <feColorMatrix values="0 0 0 0 0   0 0 0 0 0   0 0 0 0 0  0 0 0 0.102241848 0" type="matrix" in="shadowBlurOuter1"></feColorMatrix>
        </filter>
    </defs>
    <g id="Template" stroke="none" stroke-width="1" fill="none" fill-rule="evenodd">
        <g id="Icon">
            <mask id="mask-4" fill="white">
                <use xlink:href="#path-3"></use>
            </mask>
            <g id="Base">
                <use fill="black" fill-opacity="1" filter="url(#filter-5)" xlink:href="#path-3"></use>
                <use fill="url(#linearGradient-1)" fill-rule="evenodd" xlink:href="#path-3"></use>
                <use stroke="url(#linearGradient-2)" mask="url(#mask-6)" stroke-width="4" xlink:href="#path-3"></use>
            </g>
            <path d="M114.733333,107.458807 L114.733333,60.0150667 L122.266667,60.0150667 L122.266667,112.7484 L340.733333,112.7484 L340.733333,60.0150667 L348.266667,60.0150667 L348.266667,112.7484 L506.466667,112.7484 L506.466667,60.0150667 L521.533333,60.0150667 L521.533333,112.7484 L679.733333,112.7484 L679.733333,60.0150667 L687.266667,60.0150667 L687.266667,112.7484 L687.266667,112.7484 L905.733333,112.7484 L905.733333,60.0150667 L913.266667,60.0150667 L913.266667,107.458807 L913.266667,107.458807 L960.726667,60 L966,65.3260667 L918.576474,112.7484 L966,112.7484 L966,120.281733 L913.266667,120.281733 L913.266667,338.7484 L966,338.7484 L966,346.281733 L913.266667,346.281727 L913.266667,504.481733 L966,504.481733 L966,519.5484 L913.266667,519.5484 L913.266667,677.74841 L966,677.7484 L966,685.281733 L913.266667,685.281733 L913.266667,685.281733 L913.266667,903.7484 L966,903.7484 L966,911.281733 L918.576474,911.281733 L966,958.704067 L960.726667,964.030133 L913.266667,916.571327 L913.266667,964.015067 L905.733333,964.015067 L905.733333,911.281733 L687.266667,911.281733 L687.266667,964.015067 L679.733333,964.015067 L679.733333,911.281733 L521.533333,911.281733 L521.533333,964.015067 L506.466667,964.015067 L506.466667,911.281733 L348.266667,911.281733 L348.266667,964.015067 L340.733333,964.015067 L340.733333,911.281733 L122.266667,911.281733 L122.266667,964.015067 L114.733333,964.015067 L114.733333,916.571327 L67.2733333,964.030133 L62,958.704067 L109.423526,911.281733 L62,911.281733 L62,903.7484 L114.733333,903.7484 L114.733333,685.281748 L62,685.281733 L62,677.7484 L114.733333,677.7484 L114.733333,519.5484 L62,519.5484 L62,504.481733 L114.733333,504.481733 L114.733333,346.281733 L62,346.281733 L62,338.7484 L114.733333,338.7484 L114.733333,120.281733 L62,120.281733 L62,112.7484 L109.423526,112.7484 L62,65.3260667 L67.2733333,60 L114.733333,107.458807 L114.733333,107.458807 Z M639.13798,631.850266 C657.64156,612.533652 671.717548,588.941162 679.733333,562.703548 L679.733333,519.5484 L679.565158,519.5484 L526.83329,519.5484 L633.811933,626.524353 C660.642722,598.459061 677.711426,560.982781 679.565158,519.5484 L679.733333,519.5484 L679.733333,672.444599 L639.13798,631.850266 L639.13798,631.850266 Z M633.838289,637.149976 C614.519389,655.655884 590.924322,669.732481 564.686317,677.7484 L521.533333,677.7484 L521.533333,677.7484 L521.533333,677.74841 L674.437748,677.748414 L633.838289,637.149976 L633.838289,637.149976 Z M679.733333,683.043866 L679.733333,685.281733 L670.578168,685.281733 C630.889186,721.170312 578.812542,743.61382 521.533333,745.429185 L521.533333,685.281749 L679.733333,685.281756 L679.733333,685.281733 L679.733333,683.043866 L679.733333,683.043866 L679.733333,683.043866 Z M628.512298,631.824119 C600.446693,658.65655 562.969242,675.726405 521.533409,677.580221 L521.533374,524.847885 L628.512298,631.824119 L628.512298,631.824119 Z M394.188067,397.505781 C367.357278,425.571073 350.288574,463.047353 348.434842,504.481733 L348.434842,504.481733 L501.16671,504.481733 L394.188067,397.505781 L394.188067,397.505781 Z M399.487702,392.206014 C427.553307,365.373583 465.030758,348.303728 506.466591,346.449912 L506.466626,499.182248 L399.487702,392.206014 L399.487702,392.206014 Z M687.266667,679.977743 L687.266667,677.7484 L689.050844,677.7484 C728.361145,636.243248 753.071515,580.768567 754.95117,519.5484 L754.95117,519.5484 L905.66235,519.548401 C904.597457,576.012025 891.586797,629.552661 869.05185,677.748419 L687.266667,677.748414 L687.266667,679.977743 L687.266667,679.977743 L687.266667,679.977743 Z M687.266667,690.57701 L687.266667,863.445965 C724.737979,844.936751 758.822236,820.611035 788.340328,791.648129 L687.266667,690.57701 L687.266667,690.57701 Z M793.639953,786.348354 C822.599799,756.831721 846.922956,722.749845 865.430585,685.281764 L692.570814,685.281756 L793.639953,786.348354 L793.639953,786.348354 Z M127.556583,120.281733 L340.733333,120.281733 L340.733333,152.203302 C301.208871,171.271628 265.305812,196.660646 234.336133,227.058599 L127.556583,120.281733 L127.556583,120.281733 Z M229.036491,232.358357 C198.641644,263.326229 173.254906,299.226724 154.187938,338.7484 L122.266667,338.7484 L122.266667,125.591218 L229.036491,232.358357 L229.036491,232.358357 Z M388.86202,392.179867 C370.35844,411.496481 356.282452,435.088971 348.266667,461.326585 L348.266667,461.326585 L348.266667,351.585535 L388.86202,392.179867 L388.86202,392.179867 Z M394.161711,386.880157 C413.480611,368.374249 437.075678,354.297653 463.313683,346.281733 L353.562266,346.281733 L394.161711,386.880157 L394.161711,386.880157 Z M239.659672,232.382004 C269.177764,203.419098 303.262021,179.093383 340.733333,160.584168 L340.733333,160.584168 L340.733333,333.453123 L239.659672,232.382004 L239.659672,232.382004 Z M234.360047,237.681779 C205.400201,267.198412 181.077044,301.280289 162.569415,338.74837 L335.429207,338.748398 L234.360047,237.681779 L234.360047,237.681779 Z M793.663883,796.97155 C762.69419,827.369498 726.791128,852.758511 687.266667,871.826834 L687.266667,871.826834 L687.266667,903.7484 L900.443417,903.7484 L793.663883,796.97155 L793.663883,796.97155 Z M798.963527,791.671794 C829.358398,760.703919 854.745166,724.803418 873.812176,685.281733 L905.733333,685.281733 L905.733333,685.281733 L905.733333,898.438916 L798.963527,791.671794 L798.963527,791.671794 Z M639.13798,392.179867 C657.64156,411.496481 671.717548,435.088971 679.733333,461.326585 L679.733333,504.481733 L679.565158,504.481733 L526.83329,504.481733 L633.811933,397.505781 C660.642722,425.571073 677.711426,463.047353 679.565158,504.481733 L679.733333,504.481733 L679.733333,351.585535 L639.13798,392.179867 L639.13798,392.179867 L639.13798,392.179867 Z M633.838289,386.880157 C614.519389,368.374249 590.924322,354.297653 564.686317,346.281733 L674.437734,346.281733 L633.838289,386.880157 L633.838289,386.880157 L633.838289,386.880157 Z M628.512298,392.206014 C600.446693,365.373583 562.969242,348.303728 521.533409,346.449912 L521.533333,346.449909 L521.533368,499.182254 L628.512298,392.206014 L628.512298,392.206014 L628.512298,392.206014 Z M394.188067,626.524353 C367.357278,598.459061 350.288574,560.982781 348.434842,519.5484 L348.434842,519.5484 L501.16671,519.5484 L394.188067,626.524353 L394.188067,626.524353 L394.188067,626.524353 Z M399.487702,631.824119 C427.553307,658.65655 465.030758,675.726405 506.466591,677.580221 L506.466667,677.580224 L506.466632,524.847879 L399.487702,631.824119 L399.487702,631.824119 L399.487702,631.824119 Z M687.266667,344.052391 L687.266667,355.436807 C723.154745,395.124802 745.598772,447.200644 747.414123,504.481733 L687.266667,504.481733 L687.266667,344.052391 L687.266667,344.052391 L687.266667,344.052391 L687.266667,344.052391 Z M692.570791,338.7484 L865.4306,338.7484 L865.430585,338.74837 C846.922956,301.280289 822.599799,267.198412 793.639953,237.681779 L692.570791,338.7484 L692.570791,338.7484 L692.570791,338.7484 Z M788.340328,232.382004 C758.822236,203.419098 724.737979,179.093383 687.266667,160.584168 L687.266667,333.453123 L788.340328,232.382004 L788.340328,232.382004 L788.340328,232.382004 Z M394.161711,637.149976 C413.480611,655.655884 437.075678,669.732481 463.313683,677.7484 L506.466667,677.7484 L506.466667,677.7484 L506.466667,677.74841 L353.56226,677.748405 L394.161711,637.149976 L394.161711,637.149976 L394.161711,637.149976 Z M388.86202,631.850266 C370.35844,612.533652 356.282452,588.941162 348.266667,562.703548 L348.266667,562.703548 L348.266667,672.444599 L388.86202,631.850266 L388.86202,631.850266 L388.86202,631.850266 Z M229.036491,791.671776 C198.64165,760.703911 173.254917,724.803424 154.18795,685.281759 L122.266667,685.28175 L122.266667,685.28175 L122.266667,898.438916 L229.036491,791.671776 L229.036491,791.671776 L229.036491,791.671776 Z M234.336133,796.971534 C265.305812,827.369487 301.208871,852.758506 340.733333,871.826832 L340.733333,903.7484 L127.556583,903.7484 L234.336133,796.971534 L234.336133,796.971534 L234.336133,796.971534 Z M239.659672,791.648129 C269.177764,820.611035 303.262021,844.936751 340.733333,863.445965 L340.733333,863.445965 L340.733333,690.57701 L239.659672,791.648129 L239.659672,791.648129 L239.659672,791.648129 Z M234.360047,786.348354 C205.400201,756.831721 181.077044,722.749845 162.569415,685.281764 L154.187824,685.281733 L335.429201,685.281741 L234.360047,786.348354 L234.360047,786.348354 L234.360047,786.348354 Z M793.663867,227.058599 C762.694188,196.660646 726.791129,171.271628 687.266667,152.203302 L687.266667,152.203302 L687.266667,120.281733 L900.443417,120.281733 L793.663867,227.058599 L793.663867,227.058599 L793.663867,227.058599 Z M798.963509,232.358357 C829.358356,263.326229 854.745094,299.226724 873.812062,338.7484 L873.812096,338.7484 L905.733333,338.7484 L905.733333,125.591218 L798.963509,232.358357 L798.963509,232.358357 L798.963509,232.358357 Z M280.585877,504.481733 C282.401228,447.200644 304.845255,395.124802 340.733333,355.436807 L340.733333,355.436807 L340.733333,504.481733 L280.585877,504.481733 L280.585877,504.481733 L280.585877,504.481733 Z M280.585877,519.5484 C282.401228,576.82949 304.845255,628.905332 340.733333,668.593327 L340.733333,519.5484 L280.585877,519.5484 L280.585877,519.5484 L280.585877,519.5484 Z M273.04883,519.5484 C274.928485,580.768567 299.638855,636.243248 338.949156,677.7484 L340.733333,677.7484 L340.733333,677.7484 L340.733333,677.748405 L150.650205,677.7484 L158.94815,677.748419 C136.413203,629.552661 123.402543,576.012025 122.33765,519.548401 L273.04883,519.5484 L273.04883,519.5484 L273.04883,519.5484 Z M273.04883,504.481733 C274.928485,443.261566 299.638855,387.786885 338.949156,346.281733 L158.94815,346.281714 C136.413203,394.477473 123.402543,448.018108 122.33765,504.481732 L273.04883,504.481733 L273.04883,504.481733 L273.04883,504.481733 Z M754.95117,504.481733 C753.071515,443.261566 728.361145,387.786885 689.050844,346.281733 L869.051951,346.281733 L869.05185,346.281714 C891.586797,394.477473 904.597457,448.018108 905.66235,504.481732 L754.95117,504.481733 L754.95117,504.481733 L754.95117,504.481733 Z M747.414123,519.5484 C745.598772,576.82949 723.154745,628.905332 687.266667,668.593327 L687.266667,519.5484 L747.414123,519.5484 L747.414123,519.5484 L747.414123,519.5484 Z M506.466667,685.281748 L348.266667,685.281742 L348.266667,685.281733 L357.421832,685.281733 C397.110814,721.170312 449.187458,743.61382 506.466667,745.429185 L506.466667,685.281748 L506.466667,685.281748 L506.466667,685.281748 Z M506.466667,752.966223 C445.252365,751.086526 389.774911,726.377836 348.266661,687.065766 L348.266667,687.065909 L348.266667,867.067221 C396.461903,889.601895 450.002345,902.612539 506.466665,903.677418 L506.466667,752.966223 L506.466667,752.966223 Z M521.533333,752.966223 C582.747635,751.086526 638.225089,726.377836 679.733339,687.065766 L679.733333,867.067221 C631.538097,889.601895 577.997655,902.612539 521.533335,903.677418 L521.533333,752.966223 L521.533333,752.966223 Z M506.466665,120.352715 C450.002345,121.417594 396.461903,134.428238 348.266667,156.962912 L348.266667,156.962912 L348.266661,336.964367 C389.774911,297.652298 445.252365,272.943607 506.466667,271.06391 L506.466667,120.352665 L506.466665,120.352715 L506.466665,120.352715 Z M521.533335,120.352715 C577.997655,121.417594 631.538097,134.428238 679.733333,156.962912 L679.733333,156.962912 L679.733339,336.964367 C638.225089,297.652298 582.747635,272.943607 521.533333,271.06391 L521.533333,120.352665 L521.533335,120.352715 L521.533335,120.352715 Z M521.533333,278.600948 C578.812542,280.416313 630.889186,302.859821 670.578168,338.7484 L670.578168,338.7484 L521.533333,338.7484 L521.533333,278.600948 L521.533333,278.600948 L521.533333,278.600948 Z M506.466667,278.600948 C449.187458,280.416313 397.110814,302.859821 357.421832,338.7484 L506.466667,338.7484 L506.466667,278.600948 L506.466667,278.600948 L506.466667,278.600948 Z M122.266667,346.281733 L150.650261,346.281733 C137.94128,374.098768 128.332747,403.629232 122.266667,434.431199 L122.266667,346.281733 L122.266667,346.281733 Z M122.266667,589.598921 C128.332751,620.400896 137.941293,649.93137 150.650295,677.748416 L150.650205,677.7484 L122.266667,677.7484 L122.266667,589.598921 L122.266667,589.598921 L122.266667,589.598921 Z M348.266667,903.7484 L436.416787,903.7484 C405.614774,897.682285 376.084057,888.073661 348.266667,875.364486 L348.266667,903.7484 L348.266667,903.7484 L348.266667,903.7484 Z M348.266667,148.665648 C376.084057,135.956472 405.614774,126.347849 436.416787,120.281733 L348.266667,120.281733 L348.266667,148.665648 L348.266667,148.665648 L348.266667,148.665648 Z M679.733333,875.364487 C651.915941,888.073662 622.385224,897.682285 591.583213,903.7484 L591.583213,903.7484 L679.733333,903.7484 L679.733333,875.364487 L679.733333,875.364487 L679.733333,875.364487 Z M679.733333,148.665648 C651.915943,135.956472 622.385226,126.347849 591.583213,120.281733 L591.583213,120.281733 L679.733333,120.281733 L679.733333,148.665648 L679.733333,148.665648 L679.733333,148.665648 Z M905.733333,677.748411 L877.349705,677.748416 C890.058707,649.93137 899.667249,620.400896 905.733333,589.598921 L905.733333,677.748411 L905.733333,677.748411 L905.733333,677.748411 Z M905.733333,434.431212 C899.66725,403.629239 890.058708,374.098768 877.349708,346.281723 L905.733333,346.281726 L905.733333,434.431212 L905.733333,434.431212 L905.733333,434.431212 Z" id="Grid-(Hide)" fill-opacity="0.150000006" fill="#FFFFFF" mask="url(#mask-4)"></path>
            <g id="*" mask="url(#mask-4)" fill-opacity="1" fill="#FFFFFF">
                <use filter="url(#filter-8)" xlink:href="#text-7"></use>
                <use xlink:href="#text-7"></use>
            </g>
        </g>
    </g>
</svg>