<?xml version="1.0" encoding="UTF-8"?>
<svg width="1000px" height="1000px" viewBox="0 0 1000 1000" version="1.1" xmlns="http://www.w3.org/2000/svg" xmlns:xlink="http://www.w3.org/1999/xlink">
    <!-- Generator: Sketch 40 (33762) - http://www.bohemiancoding.com/sketch -->
    <title>KF - Logo E4 - W1</title>
    <desc>Created with Sketch.</desc>
    <defs></defs>
    <g id="Page-1" stroke="none" stroke-width="1" fill="none" fill-rule="evenodd">
        <g id="KF---Logo-E4---W1" fill="#3E3E3E">
            <rect id="Rectangle" transform="translate(139.857065, 264.290970) rotate(43.000000) translate(-139.857065, -264.290970) " x="112.357065" y="91.4036691" width="55" height="345.774602" rx="27.5"></rect>
            <rect id="Rectangle" transform="translate(823.979813, 456.481543) rotate(44.000000) translate(-823.979813, -456.481543) " x="796.479813" y="340.527852" width="55" height="231.907381" rx="27.5"></rect>
            <rect id="Rectangle" transform="translate(279.916379, 343.112384) rotate(-11.000000) translate(-279.916379, -343.112384) " x="252.416379" y="123.57258" width="55" height="439.079608" rx="27.5"></rect>
            <rect id="Rectangle" transform="translate(671.170966, 684.134593) rotate(30.000000) translate(-671.170966, -684.134593) " x="643.670966" y="477.270846" width="55" height="413.727495" rx="27.5"></rect>
            <rect id="Rectangle" transform="translate(830.446214, 688.448104) rotate(-25.000000) translate(-830.446214, -688.448104) " x="802.946214" y="495.548844" width="55" height="385.798521" rx="27.5"></rect>
            <rect id="Rectangle" transform="translate(213.921476, 679.320943) rotate(30.000000) translate(-213.921476, -679.320943) " x="186.421476" y="466.387113" width="55" height="425.867659" rx="27.5"></rect>
            <rect id="Rectangle" transform="translate(396.756242, 686.551979) rotate(-25.000000) translate(-396.756242, -686.551979) " x="369.256242" y="489.103222" width="55" height="394.897515" rx="27.5"></rect>
            <rect id="Rectangle" transform="translate(527.250000, 517.485333) rotate(90.000000) translate(-527.250000, -517.485333) " x="499.75" y="266.235333" width="55" height="502.5" rx="27.5"></rect>
        </g>
    </g>
</svg>